DataType=double
version=3
OpenSimVersion=4.5
endheader
time	AddMag	AddLong	GlutMaxMed	GlutMed	Iliopsoas	Sartorius	SemiMemb	SemiTend	BicFemLong	RecFem	TenFascLat	Gracilis	BicFemShort	VastMed	VastLat	VastInt	GasMed	GasLat	TibAnt	TibPost	ExtHalLong	FlexHalLong	PeroneusLong	Sol	ExtDigLong	GlutMaxLat	FlexDigLong	RecFem2
2	0.1107253591361039	0.2376382114525253	0.07353947136910063	0.1515865080899947	0.2469753270303804	0.1198910292433716	0.2091282472562333	0.1807158552242232	0.1698236265821329	0	0.5886157414299318	0.1253256266456318	0.2258026122104088	0.09851150115018477	0.03899297108870314	0.2343884255168989	0.8221477760780136	0.4154388059652492	0.2755617410496325	0.04620516314255866	0.05736159989148165	0.8073840098157095	0.716323790522877	0.470032556248907	0.06601090242562421	0.09752019603611273	0.2245394015211947	0.08562003377577436
2.001	0.1095460304464377	0.2356386902998535	0.07370611741674347	0.1483382637068592	0.244321510385126	0.1186517935129165	0.2068080224944442	0.1782541212223855	0.1682365128100665	0	0.5893681227269283	0.1241236251968984	0.2233446634676826	0.0971125838168943	0.03800101388271016	0.2320124721306889	0.825007639769738	0.4172308582253459	0.2763305861153624	0.04781874225072581	0.05760709404491712	0.8107625695714532	0.716522532081343	0.4722722909636773	0.06597611917110684	0.09624279647268472	0.2222918251896017	0.08440637404178547
2.002	0.1083386866285363	0.2335549157945364	0.07386195215928514	0.1450371026011709	0.2415835090024402	0.117375590792696	0.2044309080859859	0.1757688641009983	0.1665701761437292	0	0.5900891521759644	0.122897525831738	0.2208032071242586	0.095664970383674	0.03699229895566106	0.2295498405294597	0.8278609069293661	0.4190347142920502	0.277062452661051	0.04946390700434151	0.05782965068511806	0.8140770508513238	0.716672051435349	0.4745604502883456	0.06590516106002338	0.09496672938744435	0.2199614920863185	0.08316153581095434
2.003	0.1071043567433692	0.2313893373837714	0.07400682328549171	0.141685396344419	0.2387639069488552	0.1160633839483133	0.2019986485204922	0.1732612439955949	0.1648269887440374	0	0.5907780768505109	0.121648085564331	0.2181807611843167	0.09417027196463032	0.03596761788246945	0.2270030049520686	0.8307073828867026	0.4208506570021514	0.2777572765506487	0.05114186993896915	0.05802936515464384	0.8173275708564975	0.7167725247068876	0.4768970930891591	0.06579855419453258	0.09369221859550006	0.2175509444673449	0.08188623571234903
2.004	0.1058440641506832	0.2291443893002212	0.07414058070435429	0.1382854985154542	0.2358652728452199	0.1147161296544322	0.1995129806989177	0.1707324145160181	0.1630093085614575	0	0.5914341537253851	0.1203760579014291	0.2154798338792332	0.09263009018010612	0.03492775511141127	0.2243744292045572	0.8335468571182504	0.422678957647014	0.2784150026189211	0.05285382291534076	0.05820633746581668	0.8205142460229121	0.7168241266300059	0.4792822560117094	0.06565682713066584	0.09241948811688214	0.215062708994335	0.08058119086583955
2.005	0.1045588261602802	0.226822489795194	0.07426307660050784	0.134839743887147	0.2328901590809	0.113334778137625	0.1969756333673037	0.1681835223746765	0.1611194785767897	0	0.5920566500499728	0.1190821926028852	0.2127029228632056	0.09104601664217636	0.03387348773361142	0.2216665658832953	0.83637910318408	0.4245198758273436	0.2790355845889447	0.0546009365491343	0.05836067221544261	0.8236371919005598	0.7168270305127385	0.4817159533555113	0.06548051066534551	0.0911487620558466	0.2124992959287649	0.07924711868435841
2.006	0.1032496536906966	0.2244260403902829	0.07437416549073987	0.131350447632777	0.2298411010475421	0.1119202729278166	0.1943883265618786	0.1656157070215824	0.1591598260592232	0	0.5926448437154185	0.1177672354481606	0.2098525144241708	0.08941963245174617	0.03280558525888428	0.2188818556146794	0.839203878676792	0.4263736593132715	0.2796189849899678	0.05638435965029704	0.05849247850144842	0.8266965230385991	0.7167814082066559	0.4841981769588142	0.06527013762732151	0.08988026448181322	0.2098631983446314	0.07788473667901323
